<svg width="301" height="301" viewBox="0 0 301 301" fill="none" xmlns="http://www.w3.org/2000/svg">
<path d="M300 150C300 232.843 232.843 300 150 300C67.1573 300 0 232.843 0 150C0 67.1573 67.1573 0 150 0C232.843 0 300 67.1573 300 150Z" fill="#F5F5F5"/>
<path fill-rule="evenodd" clip-rule="evenodd" d="M126.395 158.967L128.247 162.735C135.474 177.435 154.303 181.045 166.739 170.113C168.288 168.751 170.68 165.351 172.055 162.555L174.555 157.472L175.013 92H211L210.682 126.632C210.318 166.248 210.199 167.129 203.469 180.223C200.535 185.931 198.514 188.605 192.931 194.173C179.563 207.502 166.43 212.669 147.8 211.931C137.18 211.511 131.844 210.222 123.337 206.019C111.705 200.272 101.918 190.48 96.2624 178.929C90.5366 167.236 90.5986 167.762 90.2829 127.78L90 92H125.967L126.395 158.967Z" fill="#1366FF"/>
<path fill-rule="evenodd" clip-rule="evenodd" d="M233.933 56.2278C238.54 58.6761 242.722 62.9046 245.189 67.6072L247 71.0587V229.83L244.946 233.714C242.491 238.356 237.746 242.817 232.874 245.066C229.329 246.701 229.147 246.705 151.742 246.911C66.3659 247.137 69.7087 247.306 63.0838 242.439C61.2767 241.112 58.7678 238.531 57.5072 236.703C52.7486 229.8 52.8523 231.89 53.0875 148.041C53.3012 71.8618 53.302 71.8242 54.9546 68.2952C58.0438 61.7004 63.3236 57.0216 70.0761 54.8963C72.658 54.0832 88.6336 53.9145 151.688 54.0349L230.09 54.1845L233.933 56.2278ZM71.575 66.9054C69.7295 67.8204 67.5727 69.7272 66.5788 71.3211L64.8309 74.1268L64.5903 147.76C64.4228 199.216 64.6042 222.569 65.1945 225.296C66.113 229.542 69.2791 233.315 73.1438 234.769C74.6158 235.323 99.3239 235.583 150.422 235.583H225.536L228.966 233.857C231.472 232.596 232.862 231.209 234.125 228.709L235.855 225.287V150.251C235.855 77.0161 235.819 75.1446 234.335 72.243C233.499 70.6085 231.683 68.4647 230.3 67.4799L227.784 65.6897L151.304 65.4925C74.964 65.2954 74.8172 65.2985 71.575 66.9054Z" fill="#7E49FD"/>
</svg>
